<?xml version="1.0" encoding="UTF-8"?>
<svg id="_Слой_1" data-name="Слой 1" xmlns="http://www.w3.org/2000/svg" xmlns:xlink="http://www.w3.org/1999/xlink" version="1.1" viewBox="0 0 450.6 86.3">
  <defs>
    <style>
      .cls-1 {
        fill: url(#_Безымянный_градиент_2);
      }

      .cls-1, .cls-2 {
        fill-rule: evenodd;
      }

      .cls-1, .cls-2, .cls-3 {
        stroke-width: 0px;
      }

      .cls-2, .cls-3 {
        fill: #0f172a;
      }
    </style>
    <linearGradient id="_Безымянный_градиент_2" data-name="Безымянный градиент 2" x1="30.8" y1="42.7" x2="151.6" y2="42.7" gradientTransform="translate(0 85.9) scale(1 -1)" gradientUnits="userSpaceOnUse">
      <stop offset="0" stop-color="#0ea5e9"/>
      <stop offset=".5" stop-color="#06b6d4"/>
      <stop offset="1" stop-color="#14b8a6"/>
    </linearGradient>
  </defs>
  <path class="cls-1" d="M60.4,19l9.7,54.7c.1.6.6,1,1.2,1s1.1-.4,1.2-1l9.7-54.7c1.7-9.9,10.2-17,20.2-17,5.8,0,11.7,0,17.5,0,10.1,0,18.5,7.1,20.2,17l11.5,65.2h-9.4c-10.1,0-18.5-7.1-20.2-17l-9.7-54.7c-.1-.6-.6-1-1.2-1s-1.1.4-1.2,1l-9.7,54.7c-1.7,9.9-10.2,17-20.2,17-5.8,0-11.7,0-17.5,0-10.1,0-18.5-7.1-20.2-17L30.8,2.1h9.4c10.1,0,18.5,7.1,20.2,17Z"/>
  <path class="cls-2" d="M4.3,60.1L0,84.2h9.4c10.1,0,18.5-7.1,20.2-17l4.3-24.1h-9.4c-10.1,0-18.5,7.1-20.2,17Z"/>
  <path class="cls-2" d="M153.8,19l-4.3,24.1h9.4c10.1,0,18.5-7.1,20.2-17l4.3-24.1h-9.4c-10.1,0-18.5,7.1-20.2,17Z"/>
  <path class="cls-3" d="M247.7,71.6h13.9s-14.4-42.6-14.4-42.6c-2.3-6.7-8.5-11.2-15.6-11.2h-5.5s-18.2,53.8-18.2,53.8h14s3.5-11.3,3.5-11.3h18.6s3.5,11.3,3.5,11.3ZM228.6,50.4l6-19.1h.4s6,19.1,6,19.1h-12.4Z"/>
  <path class="cls-3" d="M266.7,17.7c6.4,0,11.5,5.2,11.5,11.5v42.3s-12.9,0-12.9,0V17.7s1.4,0,1.4,0Z"/>
  <path class="cls-3" d="M310.3,54.1v-23h1.4c6.4,0,11.5,5.2,11.5,11.5v28.9s-12.3,0-12.3,0v-7.5s-.4,0-.4,0c-.9,2.5-2.4,4.4-4.5,5.9-2.1,1.4-4.7,2.2-7.8,2.1-2.7,0-5.2-.6-7.3-1.9-2.1-1.3-3.7-3-4.9-5.3-1.2-2.3-1.7-4.9-1.7-8v-25.8h1.4c6.4,0,11.5,5.2,11.5,11.5v11.8c0,2.2.6,3.9,1.7,5.2,1.2,1.3,2.7,1.9,4.7,1.8,1.3,0,2.4-.3,3.4-.8,1-.6,1.8-1.4,2.4-2.5.6-1.1.9-2.4.9-4Z"/>
  <path class="cls-3" d="M336.8,71.6l-10.5-40.4h6.3c3.9,0,7.2,2.7,8,6.5l4.1,19.4h.3s4.5-19.8,4.5-19.8c.8-3.6,4-6.1,7.7-6.1s6.8,2.5,7.7,6.1l4.6,19.6h.3s3.9-19.1,3.9-19.1c.8-3.8,4.1-6.6,8.1-6.6h6.2s-10.5,40.4-10.5,40.4h-13.8s-6.3-23.5-6.3-23.5h-.5s-6.3,23.5-6.3,23.5h-13.8Z"/>
  <path class="cls-3" d="M391,71.6V31.2s6.3,0,6.3,0c3.6,0,6.6,2.9,6.6,6.6v33.8s-12.9,0-12.9,0ZM397.4,26.6c-1.8,0-3.4-.6-4.7-1.8-1.3-1.2-2-2.7-2-4.4s.7-3.2,2-4.3c1.3-1.2,2.9-1.8,4.7-1.8s3.4.6,4.7,1.8c1.3,1.2,2,2.6,2,4.3s-.7,3.2-2,4.4c-1.3,1.2-2.8,1.8-4.7,1.8Z"/>
  <path class="cls-3" d="M422.8,48.5v23s-12.9,0-12.9,0V31.2s6.1,0,6.1,0c3.6,0,6.6,2.9,6.6,6.6v.9s.3,0,.3,0c.9-2.5,2.4-4.4,4.4-5.8,2-1.4,4.5-2.1,7.5-2.1s5.3.6,7.4,1.9c2.1,1.3,3.7,3,4.9,5.3,1.2,2.3,1.7,4.9,1.7,7.9v25.7s-12.9,0-12.9,0v-23.2c0-2.2-.6-4-1.7-5.2-1.1-1.3-2.7-1.9-4.8-1.9s-2.5.3-3.5.9c-1,.6-1.8,1.4-2.4,2.5-.6,1.1-.8,2.4-.8,3.9Z"/>
</svg>