<?xml version="1.0" encoding="utf-8"?>
<!-- Generator: Adobe Illustrator 27.0.0, SVG Export Plug-In . SVG Version: 6.00 Build 0)  -->
<svg version="1.1" id="layer" xmlns="http://www.w3.org/2000/svg" xmlns:xlink="http://www.w3.org/1999/xlink" x="0px" y="0px"
	 viewBox="0 0 606 153.8" style="enable-background:new 0 0 606 153.8;" xml:space="preserve">
<style type="text/css">
	.st0{fill-rule:evenodd;clip-rule:evenodd;fill:#DA1C5C;}
	.st1{fill-rule:evenodd;clip-rule:evenodd;fill:#A52868;}
	.st2{fill-rule:evenodd;clip-rule:evenodd;fill:#58B7DD;}
	.st3{fill-rule:evenodd;clip-rule:evenodd;fill:#AFDFE4;}
	.st4{fill-rule:evenodd;clip-rule:evenodd;fill:#008EBD;}
	.st5{fill-rule:evenodd;clip-rule:evenodd;fill:#B2D235;}
	.st6{fill-rule:evenodd;clip-rule:evenodd;fill:#39B54A;}
	.st7{fill-rule:evenodd;clip-rule:evenodd;fill:#FDB913;}
	.st8{fill-rule:evenodd;clip-rule:evenodd;fill:#F7941E;}
	.st9{fill-rule:evenodd;clip-rule:evenodd;fill:#F58220;}
	.st10{fill-rule:evenodd;clip-rule:evenodd;fill:#6D6E71;}
</style>
<g>
	<path class="st0" d="M539.8,83h-3.5v66.6h12.8c2.7-3.3,4.9-7.1,6.7-11.3C564.1,118,557,95.1,539.8,83L539.8,83z M558.6,149.6h44.3
		v-27.8C583.7,121,566.1,132.3,558.6,149.6L558.6,149.6z M553.2,83c7.5,20.2,28.2,32.7,49.7,29.7V83H553.2L553.2,83z"/>
	<path class="st1" d="M571.1,132.8c6.8,4,12.5,9.7,16.6,16.8h15.3v-27.8C591,121.3,579.7,125.4,571.1,132.8L571.1,132.8z
		 M536.3,119.9v29.6h12.8c2.7-3.3,4.9-7.1,6.7-11.3c3.6-8.7,4.3-17.9,2.6-26.6C551.7,116.5,544.1,119.2,536.3,119.9L536.3,119.9z
		 M586.2,83h-33c4.6,12.4,14.1,21.9,25.8,26.7C578.6,100.1,581.2,90.8,586.2,83L586.2,83z"/>
	<path class="st2" d="M506.3,116.3c8.6-9.1,14.8-20.5,17.3-33.3H457v66.6h66.6C521.1,136.8,514.9,125.4,506.3,116.3L506.3,116.3z"/>
	<path class="st3" d="M504.7,83H457v12.2c11.8,0,22.9,3,32.6,8.3C495.6,97.5,500.7,90.6,504.7,83L504.7,83z M489.6,129.1
		c-9.7,5.3-20.8,8.3-32.6,8.3v12.2h47.6C500.7,142,495.6,135.1,489.6,129.1L489.6,129.1z"/>
	<path class="st4" d="M457,95.1v14.2c5.5,1.8,10.8,4.1,15.7,6.9c6.2-3.5,11.8-7.9,16.9-12.9C479.9,98.1,468.8,95.1,457,95.1
		L457,95.1z M457,123.2v14.2c11.8,0,22.9-3,32.6-8.3c-5-5-10.7-9.3-16.9-12.8C467.8,119.1,462.5,121.4,457,123.2L457,123.2z"/>
	<path class="st5" d="M536.3,70.3h66.6V41.5h-66.6V70.3L536.3,70.3z M536.3,3.7v31.6h66.6V3.7H536.3L536.3,3.7z"/>
	<path class="st6" d="M536.3,61.2h66.6V47.6h-66.6V61.2L536.3,61.2z M536.3,3.7v23.6h66.6V3.7H536.3L536.3,3.7z"/>
	<path class="st7" d="M491.5,50.1c-4.5-2.8-8.2-6.4-10.9-10.5c-1.2-4.7-0.5-9.8,2.2-14.2c5.4-8.8,16.9-11.5,25.7-6.1
		c8.8,5.4,11.5,16.9,6.1,25.6c-0.9,1.4-1.9,2.6-3,3.7c-3,2-6.5,3.2-10.1,3.5c8.4,0.7,16.8-2.8,22.2-9.9V3.7H457v66.6h66.6V52.7v0
		C513.5,56.9,501.5,56.3,491.5,50.1L491.5,50.1z"/>
	<path class="st8" d="M477.6,34c-2.1-7.9-1.1-16.7,3.6-24.2c1.4-2.3,3.1-4.3,5-6.1h-7.4C473.6,13.4,473.5,24.5,477.6,34L477.6,34z
		 M513.7,70.3h9.9v-6.7C520.6,66.3,517.3,68.5,513.7,70.3L513.7,70.3z M461,3.7h-4v5.7c0.2-0.3,0.4-0.6,0.5-0.9
		C458.6,6.7,459.8,5.2,461,3.7L461,3.7z M457,53.2v17.1h18.4c-1.2-0.6-2.5-1.3-3.7-2C465.4,64.4,460.5,59.2,457,53.2L457,53.2z"/>
	<path class="st9" d="M491.5,50.1c-15.9-9.8-21.3-30.2-12.8-46.5h-10.2c0,0,0,0.1-0.1,0.1c-10.9,17.6-5.4,40.6,12.2,51.5
		c13.8,8.5,31,7,43-2.6C513.5,56.9,501.5,56.3,491.5,50.1L491.5,50.1z M516.8,5.7c-1.3-0.8-2.7-1.5-4.1-2h-18.3
		c-4.9,1.9-9.2,5.4-12.2,10.2c-2.3,3.7-3.5,7.7-3.7,11.7c0.5-2.2,1.4-4.4,2.6-6.4c6.3-10.2,19.6-13.3,29.8-7
		c10.2,6.3,13.3,19.6,7,29.8c-3.7,6-9.9,9.6-16.5,10.2c8.4,0.7,16.8-2.8,22.2-9.9V11.9C521.8,9.5,519.5,7.4,516.8,5.7L516.8,5.7z"/>
	<path class="st10" d="M417.4,40.2v30.1h-24.7V40.2h-14.3v72.9h14.3V83h24.7v30.1h14.2V40.2H417.4L417.4,40.2z M340.7,51.1
		c6.9,0,11.1,4.1,12.3,11.5h14.4c-2-16-12.8-24.2-26.8-24.2c-7.8,0-14.3,2.7-19.7,8c-3.2,3.2-5.1,6.8-5.9,11
		c-0.8,4.1-1.2,11.3-1.2,19.3c0,8,0.4,15.2,1.2,19.3c0.8,4.1,2.8,7.8,5.9,11c5.3,5.3,11.9,8,19.7,8c13.9,0,25-8.2,26.8-24.2H353
		c-1,7.4-5.4,11.5-12.3,11.5c-3.9,0-7-1.2-9.1-3.8c-3-3.2-3.6-7.6-3.6-21.8c0-14.1,0.6-18.6,3.6-21.8
		C333.7,52.3,336.8,51.1,340.7,51.1L340.7,51.1z M256.3,113.1h48v-12.7h-33.8V83h28.8V70.3h-28.8V52.9h33.8V40.2h-48V113.1
		L256.3,113.1z M194,52.9H213v60.2h14.2V52.9h19.1V40.2H194L194,52.9L194,52.9z M171.1,88.8c0,8.4-5,13.4-12.7,13.4
		s-12.6-5-12.6-13.4V40.2h-14.2v49.1c0,15.5,11.9,25.6,26.8,25.6c15,0,26.8-10.1,26.8-25.6V40.2h-14.1L171.1,88.8L171.1,88.8z
		 M91.9,40.2H77.7v72.9H125v-12.7H91.9V40.2L91.9,40.2z M27.3,88.2l9.2-26.5l8.9,26.5H27.3L27.3,88.2z M30.5,40.2L4,113.1h14.9
		l4.4-12.9h25.9l4.3,12.9h14.8L41.7,40.2H30.5L30.5,40.2z"/>
	<polygon class="st10" points="178.5,130.5 178.5,132.6 170.8,132.6 170.8,149.6 168.3,149.6 168.3,130.5 	"/>
	<path class="st10" d="M184.6,139.9c0.5,0.1,1.2,0.2,2,0.2c3,0,4.8-1.5,4.8-4c0-2.5-1.8-3.8-4.5-3.8c-1.1,0-1.9,0.1-2.3,0.2
		L184.6,139.9L184.6,139.9z M182.2,130.7c1.2-0.2,2.7-0.4,4.7-0.4c2.4,0,4.2,0.6,5.3,1.6c1,0.9,1.7,2.3,1.7,4c0,1.7-0.5,3.1-1.5,4.1
		c-1.3,1.4-3.4,2.1-5.8,2.1c-0.7,0-1.4,0-2-0.2v7.6h-2.5L182.2,130.7L182.2,130.7z"/>
	<path class="st10" d="M199.1,130.5l3.8,8.2c0.5,1.1,0.9,2.2,1.4,3.3h0.1c0.3-1,0.7-2.1,1.2-3.4l3-8.1h2.6l-4,9.8
		c-1,2.5-2.2,5.5-3.6,7.2c-1.2,1.6-2.6,2.3-4.3,2.3c-0.7,0-1.1-0.1-1.4-0.2l0.2-2c0.2,0.1,0.5,0.1,0.9,0.1c2,0,3.1-1.9,3.7-3.3
		c0.2-0.4,0.1-0.7-0.1-1.2l-6.3-12.9L199.1,130.5L199.1,130.5z"/>
	<polygon class="st10" points="228.6,130.5 228.6,149.6 226.1,149.6 226.1,132.6 217.2,132.6 217.2,149.6 214.7,149.6 214.7,130.5 	
		"/>
	<polygon class="st10" points="247.8,130.5 247.8,149.6 245.3,149.6 245.3,132.6 236.5,132.6 236.5,149.6 234,149.6 234,130.5 	"/>
	<path class="st10" d="M262.7,141.6l-1.9-5.5c-0.4-1.2-0.7-2.4-1-3.5h-0.1c-0.3,1.1-0.6,2.3-1,3.5l-1.9,5.5L262.7,141.6L262.7,141.6
		z M256.4,143.6l-2,6h-2.5l6.5-19.1h2.9l6.5,19.1h-2.6l-2-6H256.4L256.4,143.6z"/>
	<path class="st10" d="M281.9,130.5v8.5h0.8l6.5-8.5h2.9l-7.2,8.7c3.2,0.4,4.4,2.3,5.3,4.9c0.7,2,1.3,3.7,2.1,5.4h-2.6
		c-0.7-1.3-1.2-3-1.8-4.5c-0.9-2.5-2.1-4.2-5.3-4.2h-0.8v8.7h-2.5v-19.1L281.9,130.5L281.9,130.5z"/>
	<path class="st10" d="M297,140.1c0,4.1,2.2,7.8,6.1,7.8c3.9,0,6.1-3.6,6.1-7.9c0-3.8-2-7.8-6.1-7.8C299,132.2,297,136,297,140.1
		L297,140.1z M311.8,139.8c0,6.5-4,10-8.9,10c-5.1,0-8.6-3.9-8.6-9.7c0-6.1,3.7-10,8.8-10C308.4,130.2,311.8,134.2,311.8,139.8
		L311.8,139.8z"/>
	<path class="st10" d="M332.2,141.2c-0.1-2.7-0.3-5.9-0.3-8.2h-0.1c-0.7,2.2-1.4,4.6-2.4,7.2l-3.4,9.2h-1.9l-3.1-9.1
		c-0.9-2.7-1.6-5.1-2.2-7.4h0c-0.1,2.4-0.2,5.5-0.4,8.4l-0.5,8.2h-2.3l1.3-19.1h3.1l3.3,9.2c0.8,2.3,1.4,4.4,1.9,6.4h0.1
		c0.5-1.9,1.2-4,2-6.4l3.4-9.2h3.1l1.2,19.1h-2.4L332.2,141.2L332.2,141.2z"/>
	<polygon class="st10" points="353.9,130.5 353.9,149.6 351.4,149.6 351.4,132.6 342.5,132.6 342.5,149.6 340,149.6 340,130.5 	"/>
	<path class="st10" d="M368.7,141.6l-1.9-5.5c-0.4-1.2-0.7-2.4-1-3.5h-0.1c-0.3,1.1-0.6,2.3-1,3.5l-1.9,5.5L368.7,141.6L368.7,141.6
		z M362.4,143.6l-2,6h-2.5l6.5-19.1h2.9l6.5,19.1h-2.6l-2-6H362.4L362.4,143.6z"/>
	<polygon class="st10" points="380.4,130.5 380.4,138.5 389.6,138.5 389.6,130.5 392.1,130.5 392.1,149.6 389.6,149.6 389.6,140.6 
		380.4,140.6 380.4,149.6 377.9,149.6 377.9,130.5 	"/>
	<path class="st10" d="M399.9,130.5v8c0,3-0.1,5.5-0.2,8.1l0.1,0c0.9-2,2.1-4,3.5-6.3l6.2-9.8h2.5v19.1h-2.3v-8.1
		c0-3.1,0-5.3,0.2-7.8l-0.1,0c-0.9,2.1-2.2,4.3-3.5,6.4l-6,9.5h-2.6v-19.1H399.9L399.9,130.5z"/>
	<path class="st10" d="M422.8,126.5c0.1,0.9,0.4,1.8,1.7,1.8c1.3,0,1.6-0.8,1.7-1.8h1.9c-0.1,1.9-1.3,3.1-3.7,3.1
		c-2.3,0-3.4-1.2-3.6-3.1H422.8L422.8,126.5z M419.7,130.5v8c0,3-0.1,5.5-0.2,8.1l0.1,0c0.9-2,2.1-4,3.5-6.3l6.2-9.8h2.5v19.1h-2.3
		v-8.1c0-3.1,0-5.3,0.2-7.8l-0.1,0c-0.9,2.1-2.2,4.3-3.5,6.4l-6,9.5h-2.6v-19.1H419.7L419.7,130.5z"/>
</g>
</svg>
