<?xml version="1.0" encoding="utf-8"?>
<!-- Generator: Adobe Illustrator 28.1.0, SVG Export Plug-In . SVG Version: 6.00 Build 0)  -->
<svg version="1.1" id="Слой_1" xmlns="http://www.w3.org/2000/svg" xmlns:xlink="http://www.w3.org/1999/xlink" x="0px" y="0px"
	 viewBox="0 0 500 500" style="enable-background:new 0 0 500 500;" xml:space="preserve">
<style type="text/css">
	.st0{fill:#F2F2F2;}
	.st1{fill:#53D300;}
</style>
<circle class="st0" cx="250" cy="250" r="250"/>
<g>
	<circle class="st0" cx="250" cy="250" r="250"/>
</g>
<g>
	<path id="WhatsApp" class="st1" d="M416.1,245.7c0,89.4-73,161.8-163.1,161.8c-28.6,0-55.5-7.3-78.8-20.1l-90.3,28.7l29.4-86.8
		c-14.8-24.4-23.4-53-23.4-83.6c0-89.4,73-161.8,163.1-161.8C343.1,83.9,416.1,156.4,416.1,245.7z M253,109.7
		c-75.6,0-137.1,61-137.1,136c0,29.8,9.7,57.3,26.1,79.8L124.9,376l52.7-16.7c21.6,14.2,47.6,22.5,75.4,22.5
		c75.6,0,137.1-61,137.1-136S328.6,109.7,253,109.7z M335.4,283c-1-1.6-3.7-2.6-7.7-4.6s-23.7-11.6-27.3-12.9c-3.7-1.3-6.3-2-9,2
		s-10.3,12.9-12.7,15.5c-2.3,2.7-4.7,3-8.7,1s-16.9-6.2-32.1-19.7c-11.9-10.5-19.9-23.5-22.2-27.5s-0.2-6.1,1.8-8.1
		c1.8-1.8,4-4.6,6-6.9c2-2.3,2.7-4,4-6.6s0.7-5-0.3-6.9c-1-2-9-21.5-12.3-29.4s-6.7-6.6-9-6.6s-5-0.3-7.7-0.3s-7,1-10.7,5
		s-14,13.6-14,33.1s14.3,38.4,16.3,41s27.6,44,68.3,59.9c40.6,15.9,40.6,10.6,48,9.9c7.3-0.7,23.6-9.6,27-18.8
		C336.4,292.6,336.4,284.6,335.4,283z"/>
</g>
</svg>
